<?xml version="1.0" encoding="UTF-8"?>
<!DOCTYPE svg PUBLIC "-//W3C//DTD SVG 1.1//EN" "http://www.w3.org/Graphics/SVG/1.1/DTD/svg11.dtd">
<svg version="1.2" width="44.88mm" height="47.87mm" viewBox="0 0 4488 4787" preserveAspectRatio="xMidYMid" fill-rule="evenodd" stroke-width="28.222" stroke-linejoin="round" xmlns="http://www.w3.org/2000/svg" xmlns:ooo="http://xml.openoffice.org/svg/export" xmlns:xlink="http://www.w3.org/1999/xlink" xmlns:presentation="http://sun.com/xmlns/staroffice/presentation" xmlns:smil="http://www.w3.org/2001/SMIL20/" xmlns:anim="urn:oasis:names:tc:opendocument:xmlns:animation:1.0" xml:space="preserve">
 <defs class="ClipPathGroup">
  <clipPath id="presentation_clip_path" clipPathUnits="userSpaceOnUse">
   <rect x="0" y="0" width="4488" height="4787"/>
  </clipPath>
  <clipPath id="presentation_clip_path_shrink" clipPathUnits="userSpaceOnUse">
   <rect x="4" y="4" width="4480" height="4778"/>
  </clipPath>
 </defs>
 <defs class="TextShapeIndex">
  <g ooo:slide="id1" ooo:id-list="id3"/>
 </defs>
 <defs class="EmbeddedBulletChars">
  <g id="bullet-char-template-57356" transform="scale(0.00048828125,-0.00048828125)">
   <path d="M 580,1141 L 1163,571 580,0 -4,571 580,1141 Z"/>
  </g>
  <g id="bullet-char-template-57354" transform="scale(0.00048828125,-0.00048828125)">
   <path d="M 8,1128 L 1137,1128 1137,0 8,0 8,1128 Z"/>
  </g>
  <g id="bullet-char-template-10146" transform="scale(0.00048828125,-0.00048828125)">
   <path d="M 174,0 L 602,739 174,1481 1456,739 174,0 Z M 1358,739 L 309,1346 659,739 1358,739 Z"/>
  </g>
  <g id="bullet-char-template-10132" transform="scale(0.00048828125,-0.00048828125)">
   <path d="M 2015,739 L 1276,0 717,0 1260,543 174,543 174,936 1260,936 717,1481 1274,1481 2015,739 Z"/>
  </g>
  <g id="bullet-char-template-10007" transform="scale(0.00048828125,-0.00048828125)">
   <path d="M 0,-2 C -7,14 -16,27 -25,37 L 356,567 C 262,823 215,952 215,954 215,979 228,992 255,992 264,992 276,990 289,987 310,991 331,999 354,1012 L 381,999 492,748 772,1049 836,1024 860,1049 C 881,1039 901,1025 922,1006 886,937 835,863 770,784 769,783 710,716 594,584 L 774,223 C 774,196 753,168 711,139 L 727,119 C 717,90 699,76 672,76 641,76 570,178 457,381 L 164,-76 C 142,-110 111,-127 72,-127 30,-127 9,-110 8,-76 1,-67 -2,-52 -2,-32 -2,-23 -1,-13 0,-2 Z"/>
  </g>
  <g id="bullet-char-template-10004" transform="scale(0.00048828125,-0.00048828125)">
   <path d="M 285,-33 C 182,-33 111,30 74,156 52,228 41,333 41,471 41,549 55,616 82,672 116,743 169,778 240,778 293,778 328,747 346,684 L 369,508 C 377,444 397,411 428,410 L 1163,1116 C 1174,1127 1196,1133 1229,1133 1271,1133 1292,1118 1292,1087 L 1292,965 C 1292,929 1282,901 1262,881 L 442,47 C 390,-6 338,-33 285,-33 Z"/>
  </g>
  <g id="bullet-char-template-9679" transform="scale(0.00048828125,-0.00048828125)">
   <path d="M 813,0 C 632,0 489,54 383,161 276,268 223,411 223,592 223,773 276,916 383,1023 489,1130 632,1184 813,1184 992,1184 1136,1130 1245,1023 1353,916 1407,772 1407,592 1407,412 1353,268 1245,161 1136,54 992,0 813,0 Z"/>
  </g>
  <g id="bullet-char-template-8226" transform="scale(0.00048828125,-0.00048828125)">
   <path d="M 346,457 C 273,457 209,483 155,535 101,586 74,649 74,723 74,796 101,859 155,911 209,963 273,989 346,989 419,989 480,963 531,910 582,859 608,796 608,723 608,648 583,586 532,535 482,483 420,457 346,457 Z"/>
  </g>
  <g id="bullet-char-template-8211" transform="scale(0.00048828125,-0.00048828125)">
   <path d="M -4,459 L 1135,459 1135,606 -4,606 -4,459 Z"/>
  </g>
  <g id="bullet-char-template-61548" transform="scale(0.00048828125,-0.00048828125)">
   <path d="M 173,740 C 173,903 231,1043 346,1159 462,1274 601,1332 765,1332 928,1332 1067,1274 1183,1159 1299,1043 1357,903 1357,740 1357,577 1299,437 1183,322 1067,206 928,148 765,148 601,148 462,206 346,322 231,437 173,577 173,740 Z"/>
  </g>
 </defs>
 <defs class="TextEmbeddedBitmaps"/>
 <g>
  <g id="id2" class="Master_Slide">
   <g id="bg-id2" class="Background"/>
   <g id="bo-id2" class="BackgroundObjects"/>
  </g>
 </g>
 <g class="SlideGroup">
  <g>
   <g id="container-id1">
    <g id="id1" class="Slide" clip-path="url(#presentation_clip_path)">
     <g class="Page">
      <g class="Graphic">
       <g id="id3">
        <rect class="BoundingBox" stroke="none" fill="none" x="-67" y="-66" width="129" height="129"/>
        <defs>
         <clipPath id="clip_path_1" clipPathUnits="userSpaceOnUse">
          <path d="M 61,61 L -66,61 -66,-66 61,-66 61,61 Z"/>
         </clipPath>
        </defs>
        <g clip-path="url(#clip_path_1)">
         <path fill="rgb(217,29,82)" stroke="none" d="M 61,-29 C 61,-28 61,-27 60,-26 60,-23 59,-21 59,-19 59,-19 59,-18 58,-18 58,-21 57,-23 56,-25 55,-31 51,-36 45,-40 39,-43 33,-46 27,-49 27,-49 27,-49 26,-49 29,-49 31,-49 33,-49 39,-49 45,-48 50,-47 54,-46 57,-44 59,-41 60,-39 61,-37 61,-35 61,-35 61,-34 61,-34 L 61,-29 61,-29 Z"/>
         <path fill="rgb(233,73,138)" stroke="none" d="M -1,61 C -2,60 -3,58 -4,57 -9,47 -14,36 -17,25 -19,20 -20,15 -21,9 -21,5 -21,0 -21,-4 -21,-15 -18,-25 -13,-35 -10,-42 -6,-48 -2,-54 -1,-54 -1,-54 -1,-55 0,-53 1,-52 2,-50 9,-41 14,-32 16,-22 17,-18 18,-14 19,-10 19,-6 19,-2 19,3 19,11 17,20 14,28 11,39 6,50 -1,60 -1,61 -1,61 -1,61 L -1,61 Z"/>
         <path fill="rgb(229,62,122)" stroke="none" d="M 45,23 C 37,21 31,18 28,11 26,8 26,5 27,2 27,-3 28,-7 29,-11 30,-18 29,-24 25,-29 24,-33 21,-37 18,-40 18,-40 17,-40 17,-41 18,-40 19,-40 20,-40 27,-39 33,-37 39,-33 44,-29 48,-24 49,-18 51,-13 50,-8 47,-3 46,0 44,2 43,5 42,8 41,10 41,13 41,16 42,18 44,21 44,22 44,22 45,23 L 45,23 Z"/>
         <path fill="rgb(229,62,122)" stroke="none" d="M -47,23 C -46,22 -46,22 -46,21 -44,18 -43,15 -43,12 -43,9 -44,7 -46,4 -47,2 -48,-1 -50,-4 -51,-7 -52,-10 -52,-13 -52,-20 -49,-26 -44,-31 -38,-36 -31,-38 -23,-40 -22,-40 -21,-40 -20,-41 -20,-41 -20,-41 -19,-41 -20,-40 -21,-39 -21,-38 -26,-33 -30,-26 -31,-19 -32,-16 -31,-12 -31,-9 -30,-5 -29,-2 -29,2 -28,9 -30,14 -36,18 -39,21 -42,22 -46,23 -46,23 -46,23 -47,23 L -47,23 Z"/>
         <path fill="rgb(217,29,82)" stroke="none" d="M -64,-18 C -64,-21 -65,-24 -66,-27 -66,-30 -66,-34 -65,-37 -64,-42 -62,-45 -57,-46 -54,-48 -50,-48 -46,-49 -41,-49 -36,-49 -31,-49 L -31,-49 C -33,-48 -34,-48 -35,-47 -40,-45 -44,-43 -49,-40 -56,-36 -60,-31 -62,-24 -62,-22 -63,-20 -63,-18 L -64,-18 -64,-18 Z"/>
         <path fill="rgb(175,31,54)" stroke="none" d="M -12,-57 C -15,-56 -18,-56 -21,-55 -26,-54 -30,-56 -33,-60 -34,-62 -35,-65 -35,-66 -29,-61 -21,-59 -13,-57 L -12,-57 -12,-57 Z"/>
         <path fill="rgb(175,31,54)" stroke="none" d="M 30,-65 C 29,-62 28,-59 25,-57 23,-54 19,-53 16,-54 13,-55 10,-55 8,-56 8,-56 7,-56 7,-56 15,-58 23,-60 30,-65 L 30,-65 Z"/>
        </g>
       </g>
      </g>
     </g>
    </g>
   </g>
  </g>
 </g>
</svg>