<?xml version="1.0" encoding="UTF-8" standalone="no"?>
<!DOCTYPE svg PUBLIC "-//W3C//DTD SVG 20010904//EN"
              "http://www.w3.org/TR/2001/REC-SVG-20010904/DTD/svg10.dtd">

<svg xmlns="http://www.w3.org/2000/svg"
     width="3.0in" height="3.0in"
     viewBox="-15 -15 30 30">

  <path id="box1_pos_xz"
        fill="none" stroke="black" stroke-width="1"
        d="M 5,5
           C -5,5 -5,-5 5,-5 5,5" />
  <path id="box1_pos_y"
        fill="none" stroke="black" stroke-width="1"
        d="M 0,0
           C 0,1 0,5 0,-3 0,0" />

  <path id="cone1_pos_xz"
        fill="none" stroke="#0000ff" stroke-width="1"
        d="M 5,5
           C -5,5 0,1 5,-5 0,1" />
  <path id="cone1_pos_y"
        fill="none" stroke="#000000" stroke-width="1"
        d="M 0,1
           C 0,1 0,5 0,-3 0,0" />
  <path id="cone1_lookat_xz"
        fill="none" stroke="#008888" stroke-width="1"
        d="M 0,0
           C 0,0 5,0 5,0 0,0" />
  <path id="cone1_lookat_y"
        fill="none" stroke="#008888" stroke-width="1"
        d="M 0,0
           C 0,3 0,-3 0,5 0,-5" />

  <path id="cam1_pos_xz"
        fill="none" stroke="red" stroke-width="1"
        d="M 10,10
           L -10,10 -10,-30" />
  <path id="cam1_pos_y"
        fill="none" stroke="red" stroke-width="1"
        d="M 0,10
           L 0,5 0,10" />
  <path id="cam1_lookat_xz"
        fill="none" stroke="red" stroke-width="1"
        d="M 0,0
           L 0,0" />
  <path id="cam1_lookat_y"
        fill="none" stroke="red" stroke-width="1"
        d="M 0,0
           L 0,0" />

</svg>
