<svg version="1.1"
     width="60" height="80"
     xmlns="http://www.w3.org/2000/svg"
     xmlns:svgtools="https://dustinpfister.github.io/2022/09/16/threejs-svg-loader/"
  >

  <image href="self.png" height="60" width="60" />
  <path
    svgtools:zindex="0"
    fill="#afafaf"
    stroke="#000000"
    opacity="0.5"
    d="M 7,14 
       L 9,13 9,6 12,10
       Q 17,4 30,2
       C 38,2, 45,8 49,16
       L 58,17
       L 54,21
       Q 58,22 54,25
       L 40,36
       Q 34,40 27,36
       Q 22,34 14,28
       Z" />
  <path
    svgtools:zindex="0"
    fill="#afafaf"
    stroke="#000000"
    opacity="0.5"
    d="M 23,35
       Q 29,39 32,39
       Q 36,40 40,37
       L 35,42
       L 29,42
       Z" />
   <circle
       svgtools:zindex="1"
       fill="#afafaf"
       stroke="#000000"
       opacity="0.5"
       cx="26" cy="23" r="6" />
   <circle
       svgtools:zindex="1"
       fill="#afafaf"
       stroke="#000000"
       opacity="0.5"
       cx="42" cy="24" r="6" />
</svg>