<svg preserveAspectRatio="xMidYMid meet" data-bbox="0 0 169.624 180.94" viewBox="0 0 169.624 180.94" xmlns="http://www.w3.org/2000/svg" data-type="color" role="presentation" aria-hidden="true">
    <g>
        <path d="M0 128.8c.25-1.72.41-3.45.78-5.14.73-3.34 1.57-6.66 2.37-9.99.05-.22.18-.43.35-.82.93 3.28 1.87 6.36 2.69 9.47 2.36 8.94 7.56 15.76 15.18 20.9 7.5 5.06 15.53 9.12 23.72 12.88.35.16.7.33 1.03.71-2.8 0-5.6.06-8.4-.01-7.95-.19-15.85-.82-23.51-3.13-4.73-1.42-8.98-3.56-11.4-8.23-1.43-2.77-2.16-5.72-2.52-8.79-.05-.46-.18-.92-.28-1.38v-6.47Z" fill="#d91d52" data-color="1"></path>
        <path d="M82.95 0c1.16 2.12 2.26 4.09 3.33 6.09 7.58 14.23 13.94 28.97 18.21 44.55 2.06 7.5 3.59 15.1 4.5 22.84.76 6.47 1.14 12.96.88 19.46-.61 15.46-4.02 30.29-10.43 44.41-4.26 9.39-9.61 18.12-15.8 26.34-.21.28-.46.53-.82.94-1.6-2.22-3.17-4.32-4.66-6.48-8.54-12.4-15.07-25.76-18.63-40.44-1.26-5.21-2.04-10.55-2.87-15.85-.97-6.25-.95-12.58-.67-18.87.55-12.15 2.79-24.03 6.27-35.69C67.12 31.01 74.1 15.63 82.38.82c.13-.23.3-.44.56-.82Z" fill="#e9498a" data-color="2"></path>
        <path d="M21.86 54.2c10.51 2.46 18.49 7.6 22.72 17.51 1.77 4.15 1.85 8.55 1.2 12.93-.89 6.06-2.11 12.07-2.9 18.15-1.19 9.14.52 17.85 4.56 26.11 2.63 5.38 6.1 10.19 10.12 14.62.31.34.62.7.81 1.34-1.37-.26-2.75-.49-4.11-.79-9.01-1.96-17.5-5.15-24.93-10.77-6.98-5.28-11.86-11.91-13.79-20.61-1.66-7.45-.6-14.47 2.63-21.27 1.92-4.03 3.95-8.01 5.73-12.1 1.51-3.48 2.48-7.11 2.35-11-.14-4.03-1.32-7.75-3.01-11.35-.39-.82-.81-1.63-1.38-2.76Z" fill="#e53e7a" data-color="3"></path>
        <path d="M143.96 54.36c-.4.77-.73 1.38-1.05 2-2.14 4.25-3.73 8.65-3.51 13.5.17 3.76 1.33 7.28 2.86 10.67 1.82 4.03 3.9 7.95 5.69 11.99 1.9 4.29 3.15 8.74 2.96 13.53-.38 9.64-4.01 17.77-11.06 24.37-7.69 7.19-17.04 11.05-27.12 13.39-1.59.37-3.19.65-4.79.96-.15.03-.31 0-.71 0 1.02-1.19 1.93-2.22 2.81-3.27 6.69-7.94 11.15-16.93 12.93-27.21.86-4.99.51-9.93-.31-14.86-.85-5.1-1.93-10.16-2.7-15.27-1.41-9.39 2.01-16.95 9.13-23 4.1-3.48 8.84-5.65 14.08-6.76.18-.04.38-.02.78-.05Z" fill="#e53e7a" data-color="3"></path>
        <path d="M166.58 113.03c.82 3.93 1.8 7.83 2.44 11.79.83 5.15.87 10.31-.29 15.46-1.42 6.32-5.1 10.56-11.24 12.72-4.55 1.6-9.22 2.63-13.99 3.01-6.67.54-13.37.76-20.06 1.11l-.08-.47c1.57-.72 3.14-1.43 4.7-2.18 6.44-3.08 12.72-6.46 18.77-10.27 8.93-5.62 14.72-13.39 17.14-23.67.59-2.51 1.38-4.98 2.08-7.47l.52-.03Z" fill="#d91d52" data-color="1"></path>
        <path d="M98.12 167.86c3.71-.87 7.41-1.77 11.12-2.59 7.26-1.6 12.2 1.76 15.94 7.58 1.58 2.46 3.26 6.53 3.41 8.09-9.01-6.96-19.63-10.01-30.39-12.72l-.08-.36Z" fill="#af1f36" data-color="4"></path>
        <path d="M41.13 180c1.53-4.69 3.36-8.9 6.77-12.22 3.51-3.42 7.68-4.75 12.5-3.68 3.57.8 7.11 1.73 10.66 2.62.22.06.43.19.79.35-10.89 2.78-21.52 5.81-30.72 12.94Z" fill="#af1f36" data-color="4"></path>
    </g>
</svg>
