<?xml version="1.0" encoding="UTF-8" standalone="no"?>
<!DOCTYPE svg PUBLIC "-//W3C//DTD SVG 20010904//EN"
              "http://www.w3.org/TR/2001/REC-SVG-20010904/DTD/svg10.dtd">

<svg xmlns="http://www.w3.org/2000/svg"
     width="0.106667in" height="0.106667in"
     viewBox="0 0 32 32">
  <path id="dense1"
        fill="none" stroke="black" stroke-width="1"
        d="M -0.09,26.73
           C -0.09,26.73 5.82,23.55 5.82,23.55
             5.82,23.55 10.73,16.91 10.82,15.82
             10.91,14.73 13.18,7.09 13.18,7.09
             13.18,7.09 15.36,4.18 15.36,4.18
             15.36,4.18 19.91,2.82 20.45,2.82
             21.00,2.82 24.09,4.09 24.09,4.09
             24.09,4.09 27.73,11.00 27.82,11.18
             28.56,13.08 27.82,20.36 27.91,21.18
             28.00,22.00 29.00,27.91 29.00,28.09
             29.00,28.27 30.82,30.27 31.09,30.36" />
</svg>
